<svg xmlns="http://www.w3.org/2000/svg" width="19" height="19" viewBox="0 0 19 19">
  <defs>
    <style>
      .cls-1 {
        fill: #fff;
      }
    </style>
  </defs>
  <path id="lightbtn" class="cls-1" d="M19,10V7a2,2,0,0,0-2-2H14A3,3,0,0,0,8,5H5A2,2,0,0,0,3,7v3.881l.659.239a1.988,1.988,0,0,1,0,3.76L3,15.119V19a2,2,0,0,0,2,2H8.881l.239-.659a1.988,1.988,0,0,1,3.76,0l.239.659H17a2,2,0,0,0,2-2V16a3,3,0,0,0,0-6Zm0,4H17l0,5H14.452a3.979,3.979,0,0,0-6.9,0H5V16.452a3.979,3.979,0,0,0,0-6.9V7h5V5a1,1,0,0,1,2,0V7h5v5h2a1,1,0,0,1,0,2Z" transform="translate(-3 -2)"/>
</svg>
